<svg xmlns="http://www.w3.org/2000/svg" xmlns:xlink="http://www.w3.org/1999/xlink" width="500" zoomAndPan="magnify" viewBox="0 0 375 374.999991" height="500" preserveAspectRatio="xMidYMid meet" version="1.0"><defs><g/><clipPath id="8a475b5419"><rect x="0" width="300" y="0" height="235"/></clipPath></defs><g transform="matrix(1, 0, 0, 1, 31, 70)"><g clip-path="url(#8a475b5419)"><g fill="#000000" fill-opacity="1"><g transform="translate(0.638423, 84.183877)"><g><path d="M 3.8125 0 L 3.8125 -54.5 L 32.078125 -54.5 C 36.953125 -54.5 41.164062 -53.613281 44.71875 -51.84375 C 48.28125 -50.082031 51.035156 -47.601562 52.984375 -44.40625 C 54.929688 -41.21875 55.90625 -37.445312 55.90625 -33.09375 C 55.90625 -28.726562 54.929688 -24.945312 52.984375 -21.75 C 51.035156 -18.5625 48.296875 -16.082031 44.765625 -14.3125 C 41.234375 -12.550781 37.082031 -11.671875 32.3125 -11.671875 L 26.078125 -11.671875 L 26.078125 0 Z M 25.453125 -27.875 L 28.34375 -27.875 C 32.082031 -27.875 33.953125 -29.507812 33.953125 -32.78125 C 33.953125 -36 32.082031 -37.609375 28.34375 -37.609375 L 25.453125 -37.609375 Z M 25.453125 -27.875 "/></g></g></g><g fill="#000000" fill-opacity="1"><g transform="translate(52.410717, 84.183877)"><g><path d="M 3.5 0 L 3.5 -57.609375 L 24.21875 -57.609375 L 24.21875 -39.859375 C 25.71875 -40.847656 27.347656 -41.601562 29.109375 -42.125 C 30.878906 -42.644531 32.800781 -42.90625 34.875 -42.90625 C 40.125 -42.90625 44.265625 -41.332031 47.296875 -38.1875 C 50.335938 -35.050781 51.859375 -30.832031 51.859375 -25.53125 L 51.859375 0 L 31.140625 0 L 31.140625 -22.1875 C 31.140625 -25.144531 30 -26.625 27.71875 -26.625 C 25.382812 -26.625 24.21875 -25.117188 24.21875 -22.109375 L 24.21875 0 Z M 3.5 0 "/></g></g></g><g fill="#000000" fill-opacity="1"><g transform="translate(101.769558, 84.183877)"><g><path d="M 26.859375 1.09375 C 21.722656 1.09375 17.242188 0.195312 13.421875 -1.59375 C 9.609375 -3.382812 6.640625 -5.925781 4.515625 -9.21875 C 2.390625 -12.519531 1.328125 -16.398438 1.328125 -20.859375 C 1.328125 -25.328125 2.390625 -29.207031 4.515625 -32.5 C 6.640625 -35.800781 9.609375 -38.359375 13.421875 -40.171875 C 17.242188 -41.992188 21.722656 -42.90625 26.859375 -42.90625 C 31.992188 -42.90625 36.46875 -41.992188 40.28125 -40.171875 C 44.101562 -38.359375 47.078125 -35.800781 49.203125 -32.5 C 51.335938 -29.207031 52.40625 -25.328125 52.40625 -20.859375 C 52.40625 -16.398438 51.335938 -12.519531 49.203125 -9.21875 C 47.078125 -5.925781 44.101562 -3.382812 40.28125 -1.59375 C 36.46875 0.195312 31.992188 1.09375 26.859375 1.09375 Z M 21.40625 -20.859375 C 21.40625 -19.203125 21.910156 -17.867188 22.921875 -16.859375 C 23.941406 -15.847656 25.253906 -15.34375 26.859375 -15.34375 C 28.523438 -15.34375 29.863281 -15.847656 30.875 -16.859375 C 31.882812 -17.867188 32.390625 -19.203125 32.390625 -20.859375 C 32.390625 -22.523438 31.882812 -23.875 30.875 -24.90625 C 29.863281 -25.945312 28.523438 -26.46875 26.859375 -26.46875 C 25.253906 -26.46875 23.941406 -25.945312 22.921875 -24.90625 C 21.910156 -23.875 21.40625 -22.523438 21.40625 -20.859375 Z M 21.40625 -20.859375 "/></g></g></g><g fill="#000000" fill-opacity="1"><g transform="translate(149.49347, 84.183877)"><g><path d="M 27.875 0 C 21.226562 0 16.28125 -1.425781 13.03125 -4.28125 C 9.789062 -7.132812 8.171875 -11.46875 8.171875 -17.28125 L 8.171875 -26 L 0.9375 -26 L 0.9375 -41.8125 L 4.515625 -41.8125 C 7.109375 -41.8125 8.882812 -42.195312 9.84375 -42.96875 C 10.8125 -43.75 11.5 -45.3125 11.90625 -47.65625 L 12.765625 -52.78125 L 28.890625 -52.78125 L 28.890625 -41.8125 L 37.765625 -41.8125 L 37.765625 -26.234375 L 28.890625 -26.234375 L 28.890625 -21.640625 C 28.890625 -19.828125 29.316406 -18.503906 30.171875 -17.671875 C 31.023438 -16.835938 32.414062 -16.421875 34.34375 -16.421875 L 38.078125 -16.421875 L 38.078125 0 Z M 27.875 0 "/></g></g></g><g fill="#000000" fill-opacity="1"><g transform="translate(183.826619, 84.183877)"><g><path d="M 26.859375 1.09375 C 21.722656 1.09375 17.242188 0.195312 13.421875 -1.59375 C 9.609375 -3.382812 6.640625 -5.925781 4.515625 -9.21875 C 2.390625 -12.519531 1.328125 -16.398438 1.328125 -20.859375 C 1.328125 -25.328125 2.390625 -29.207031 4.515625 -32.5 C 6.640625 -35.800781 9.609375 -38.359375 13.421875 -40.171875 C 17.242188 -41.992188 21.722656 -42.90625 26.859375 -42.90625 C 31.992188 -42.90625 36.46875 -41.992188 40.28125 -40.171875 C 44.101562 -38.359375 47.078125 -35.800781 49.203125 -32.5 C 51.335938 -29.207031 52.40625 -25.328125 52.40625 -20.859375 C 52.40625 -16.398438 51.335938 -12.519531 49.203125 -9.21875 C 47.078125 -5.925781 44.101562 -3.382812 40.28125 -1.59375 C 36.46875 0.195312 31.992188 1.09375 26.859375 1.09375 Z M 21.40625 -20.859375 C 21.40625 -19.203125 21.910156 -17.867188 22.921875 -16.859375 C 23.941406 -15.847656 25.253906 -15.34375 26.859375 -15.34375 C 28.523438 -15.34375 29.863281 -15.847656 30.875 -16.859375 C 31.882812 -17.867188 32.390625 -19.203125 32.390625 -20.859375 C 32.390625 -22.523438 31.882812 -23.875 30.875 -24.90625 C 29.863281 -25.945312 28.523438 -26.46875 26.859375 -26.46875 C 25.253906 -26.46875 23.941406 -25.945312 22.921875 -24.90625 C 21.910156 -23.875 21.40625 -22.523438 21.40625 -20.859375 Z M 21.40625 -20.859375 "/></g></g></g><g fill="#000000" fill-opacity="1"><g transform="translate(0.638423, 144.470179)"><g><path d="M 3.8125 0 L 3.8125 -54.5 L 37.609375 -54.5 C 43.054688 -54.5 47.320312 -53.226562 50.40625 -50.6875 C 53.5 -48.144531 55.046875 -44.613281 55.046875 -40.09375 C 55.046875 -37.238281 54.4375 -34.722656 53.21875 -32.546875 C 52 -30.367188 50.273438 -28.679688 48.046875 -27.484375 C 50.640625 -26.335938 52.703125 -24.632812 54.234375 -22.375 C 55.765625 -20.125 56.53125 -17.492188 56.53125 -14.484375 C 56.53125 -11.578125 55.800781 -9.03125 54.34375 -6.84375 C 52.894531 -4.664062 50.84375 -2.976562 48.1875 -1.78125 C 45.539062 -0.59375 42.429688 0 38.859375 0 Z M 24.84375 -13.859375 L 30.515625 -13.859375 C 33.316406 -13.859375 34.71875 -15.078125 34.71875 -17.515625 C 34.71875 -20.003906 33.316406 -21.25 30.515625 -21.25 L 24.84375 -21.25 Z M 24.84375 -33.71875 L 29.96875 -33.71875 C 32.726562 -33.71875 34.109375 -34.910156 34.109375 -37.296875 C 34.109375 -39.679688 32.726562 -40.875 29.96875 -40.875 L 24.84375 -40.875 Z M 24.84375 -33.71875 "/></g></g></g><g fill="#000000" fill-opacity="1"><g transform="translate(53.267107, 144.470179)"><g><path d="M 26.859375 1.09375 C 21.722656 1.09375 17.242188 0.195312 13.421875 -1.59375 C 9.609375 -3.382812 6.640625 -5.925781 4.515625 -9.21875 C 2.390625 -12.519531 1.328125 -16.398438 1.328125 -20.859375 C 1.328125 -25.328125 2.390625 -29.207031 4.515625 -32.5 C 6.640625 -35.800781 9.609375 -38.359375 13.421875 -40.171875 C 17.242188 -41.992188 21.722656 -42.90625 26.859375 -42.90625 C 31.992188 -42.90625 36.46875 -41.992188 40.28125 -40.171875 C 44.101562 -38.359375 47.078125 -35.800781 49.203125 -32.5 C 51.335938 -29.207031 52.40625 -25.328125 52.40625 -20.859375 C 52.40625 -16.398438 51.335938 -12.519531 49.203125 -9.21875 C 47.078125 -5.925781 44.101562 -3.382812 40.28125 -1.59375 C 36.46875 0.195312 31.992188 1.09375 26.859375 1.09375 Z M 21.40625 -20.859375 C 21.40625 -19.203125 21.910156 -17.867188 22.921875 -16.859375 C 23.941406 -15.847656 25.253906 -15.34375 26.859375 -15.34375 C 28.523438 -15.34375 29.863281 -15.847656 30.875 -16.859375 C 31.882812 -17.867188 32.390625 -19.203125 32.390625 -20.859375 C 32.390625 -22.523438 31.882812 -23.875 30.875 -24.90625 C 29.863281 -25.945312 28.523438 -26.46875 26.859375 -26.46875 C 25.253906 -26.46875 23.941406 -25.945312 22.921875 -24.90625 C 21.910156 -23.875 21.40625 -22.523438 21.40625 -20.859375 Z M 21.40625 -20.859375 "/></g></g></g><g fill="#000000" fill-opacity="1"><g transform="translate(101.536001, 144.470179)"><g><path d="M 26.859375 1.09375 C 21.722656 1.09375 17.242188 0.195312 13.421875 -1.59375 C 9.609375 -3.382812 6.640625 -5.925781 4.515625 -9.21875 C 2.390625 -12.519531 1.328125 -16.398438 1.328125 -20.859375 C 1.328125 -25.328125 2.390625 -29.207031 4.515625 -32.5 C 6.640625 -35.800781 9.609375 -38.359375 13.421875 -40.171875 C 17.242188 -41.992188 21.722656 -42.90625 26.859375 -42.90625 C 31.992188 -42.90625 36.46875 -41.992188 40.28125 -40.171875 C 44.101562 -38.359375 47.078125 -35.800781 49.203125 -32.5 C 51.335938 -29.207031 52.40625 -25.328125 52.40625 -20.859375 C 52.40625 -16.398438 51.335938 -12.519531 49.203125 -9.21875 C 47.078125 -5.925781 44.101562 -3.382812 40.28125 -1.59375 C 36.46875 0.195312 31.992188 1.09375 26.859375 1.09375 Z M 21.40625 -20.859375 C 21.40625 -19.203125 21.910156 -17.867188 22.921875 -16.859375 C 23.941406 -15.847656 25.253906 -15.34375 26.859375 -15.34375 C 28.523438 -15.34375 29.863281 -15.847656 30.875 -16.859375 C 31.882812 -17.867188 32.390625 -19.203125 32.390625 -20.859375 C 32.390625 -22.523438 31.882812 -23.875 30.875 -24.90625 C 29.863281 -25.945312 28.523438 -26.46875 26.859375 -26.46875 C 25.253906 -26.46875 23.941406 -25.945312 22.921875 -24.90625 C 21.910156 -23.875 21.40625 -22.523438 21.40625 -20.859375 Z M 21.40625 -20.859375 "/></g></g></g><g fill="#000000" fill-opacity="1"><g transform="translate(149.259913, 144.470179)"><g><path d="M 27.875 0 C 21.226562 0 16.28125 -1.425781 13.03125 -4.28125 C 9.789062 -7.132812 8.171875 -11.46875 8.171875 -17.28125 L 8.171875 -26 L 0.9375 -26 L 0.9375 -41.8125 L 4.515625 -41.8125 C 7.109375 -41.8125 8.882812 -42.195312 9.84375 -42.96875 C 10.8125 -43.75 11.5 -45.3125 11.90625 -47.65625 L 12.765625 -52.78125 L 28.890625 -52.78125 L 28.890625 -41.8125 L 37.765625 -41.8125 L 37.765625 -26.234375 L 28.890625 -26.234375 L 28.890625 -21.640625 C 28.890625 -19.828125 29.316406 -18.503906 30.171875 -17.671875 C 31.023438 -16.835938 32.414062 -16.421875 34.34375 -16.421875 L 38.078125 -16.421875 L 38.078125 0 Z M 27.875 0 "/></g></g></g><g fill="#000000" fill-opacity="1"><g transform="translate(184.215895, 144.470179)"><g><path d="M 3.5 0 L 3.5 -57.609375 L 24.21875 -57.609375 L 24.21875 -39.859375 C 25.71875 -40.847656 27.347656 -41.601562 29.109375 -42.125 C 30.878906 -42.644531 32.800781 -42.90625 34.875 -42.90625 C 40.125 -42.90625 44.265625 -41.332031 47.296875 -38.1875 C 50.335938 -35.050781 51.859375 -30.832031 51.859375 -25.53125 L 51.859375 0 L 31.140625 0 L 31.140625 -22.1875 C 31.140625 -25.144531 30 -26.625 27.71875 -26.625 C 25.382812 -26.625 24.21875 -25.117188 24.21875 -22.109375 L 24.21875 0 Z M 3.5 0 "/></g></g></g><g fill="#000000" fill-opacity="1"><g transform="translate(0.638423, 204.75648)"><g><path d="M 30.75 1.09375 C 24.882812 1.09375 19.757812 -0.0976562 15.375 -2.484375 C 10.988281 -4.878906 7.578125 -8.203125 5.140625 -12.453125 C 2.703125 -16.710938 1.484375 -21.644531 1.484375 -27.25 C 1.484375 -32.851562 2.710938 -37.78125 5.171875 -42.03125 C 7.640625 -46.289062 11.078125 -49.613281 15.484375 -52 C 19.898438 -54.394531 24.960938 -55.59375 30.671875 -55.59375 C 39.140625 -55.59375 45.992188 -53.382812 51.234375 -48.96875 C 56.472656 -44.5625 59.640625 -38.332031 60.734375 -30.28125 L 39.625 -30.28125 C 39.0625 -32.050781 38.0625 -33.414062 36.625 -34.375 C 35.195312 -35.332031 33.578125 -35.8125 31.765625 -35.8125 C 29.378906 -35.8125 27.429688 -35.03125 25.921875 -33.46875 C 24.421875 -31.914062 23.671875 -29.84375 23.671875 -27.25 C 23.671875 -24.707031 24.410156 -22.644531 25.890625 -21.0625 C 27.367188 -19.476562 29.300781 -18.6875 31.6875 -18.6875 C 33.601562 -18.6875 35.273438 -19.191406 36.703125 -20.203125 C 38.140625 -21.210938 39.140625 -22.601562 39.703125 -24.375 L 60.8125 -24.375 C 60.34375 -19.175781 58.757812 -14.671875 56.0625 -10.859375 C 53.363281 -7.046875 49.84375 -4.097656 45.5 -2.015625 C 41.164062 0.0546875 36.25 1.09375 30.75 1.09375 Z M 30.75 1.09375 "/></g></g></g><g fill="#000000" fill-opacity="1"><g transform="translate(56.614786, 204.75648)"><g><path d="M 17.59375 1.015625 C 12.613281 1.015625 8.734375 -0.125 5.953125 -2.40625 C 3.179688 -4.695312 1.796875 -7.835938 1.796875 -11.828125 C 1.796875 -15.671875 3.078125 -18.75 5.640625 -21.0625 C 8.210938 -23.375 11.703125 -24.53125 16.109375 -24.53125 L 28.890625 -24.53125 L 28.890625 -27.015625 C 28.890625 -27.898438 28.601562 -28.613281 28.03125 -29.15625 C 27.457031 -29.695312 26.703125 -29.96875 25.765625 -29.96875 C 24.890625 -29.96875 24.164062 -29.707031 23.59375 -29.1875 C 23.019531 -28.675781 22.707031 -27.976562 22.65625 -27.09375 L 3.8125 -27.09375 C 5.320312 -37.632812 12.71875 -42.90625 26 -42.90625 C 33.53125 -42.90625 39.226562 -41.21875 43.09375 -37.84375 C 46.957031 -34.46875 48.890625 -29.484375 48.890625 -22.890625 L 48.890625 0 L 34.109375 0 L 32.3125 -4.671875 C 28.726562 -0.878906 23.820312 1.015625 17.59375 1.015625 Z M 21.015625 -13.78125 C 21.015625 -12.945312 21.335938 -12.285156 21.984375 -11.796875 C 22.640625 -11.304688 23.515625 -11.0625 24.609375 -11.0625 C 26.003906 -11.0625 27.117188 -11.445312 27.953125 -12.21875 C 28.785156 -13 29.203125 -14.09375 29.203125 -15.5 L 29.203125 -16.5 L 24.609375 -16.5 C 23.515625 -16.5 22.640625 -16.265625 21.984375 -15.796875 C 21.335938 -15.335938 21.015625 -14.664062 21.015625 -13.78125 Z M 21.015625 -13.78125 "/></g></g></g><g fill="#000000" fill-opacity="1"><g transform="translate(102.937358, 204.75648)"><g><path d="M 3.5 0 L 3.5 -41.8125 L 18.21875 -41.8125 L 20.09375 -37.140625 C 23.664062 -40.984375 28.414062 -42.90625 34.34375 -42.90625 C 39.789062 -42.90625 44.070312 -41.332031 47.1875 -38.1875 C 50.300781 -35.050781 51.859375 -30.707031 51.859375 -25.15625 L 51.859375 0 L 31.140625 0 L 31.140625 -22.265625 C 31.140625 -25.171875 30 -26.625 27.71875 -26.625 C 25.382812 -26.625 24.21875 -25.117188 24.21875 -22.109375 L 24.21875 0 Z M 3.5 0 "/></g></g></g><g fill="#000000" fill-opacity="1"><g transform="translate(152.2962, 204.75648)"><g><path d="M 17.59375 1.015625 C 12.613281 1.015625 8.734375 -0.125 5.953125 -2.40625 C 3.179688 -4.695312 1.796875 -7.835938 1.796875 -11.828125 C 1.796875 -15.671875 3.078125 -18.75 5.640625 -21.0625 C 8.210938 -23.375 11.703125 -24.53125 16.109375 -24.53125 L 28.890625 -24.53125 L 28.890625 -27.015625 C 28.890625 -27.898438 28.601562 -28.613281 28.03125 -29.15625 C 27.457031 -29.695312 26.703125 -29.96875 25.765625 -29.96875 C 24.890625 -29.96875 24.164062 -29.707031 23.59375 -29.1875 C 23.019531 -28.675781 22.707031 -27.976562 22.65625 -27.09375 L 3.8125 -27.09375 C 5.320312 -37.632812 12.71875 -42.90625 26 -42.90625 C 33.53125 -42.90625 39.226562 -41.21875 43.09375 -37.84375 C 46.957031 -34.46875 48.890625 -29.484375 48.890625 -22.890625 L 48.890625 0 L 34.109375 0 L 32.3125 -4.671875 C 28.726562 -0.878906 23.820312 1.015625 17.59375 1.015625 Z M 21.015625 -13.78125 C 21.015625 -12.945312 21.335938 -12.285156 21.984375 -11.796875 C 22.640625 -11.304688 23.515625 -11.0625 24.609375 -11.0625 C 26.003906 -11.0625 27.117188 -11.445312 27.953125 -12.21875 C 28.785156 -13 29.203125 -14.09375 29.203125 -15.5 L 29.203125 -16.5 L 24.609375 -16.5 C 23.515625 -16.5 22.640625 -16.265625 21.984375 -15.796875 C 21.335938 -15.335938 21.015625 -14.664062 21.015625 -13.78125 Z M 21.015625 -13.78125 "/></g></g></g><g fill="#000000" fill-opacity="1"><g transform="translate(198.618771, 204.75648)"><g><path d="M 22.265625 1.09375 C 18.109375 1.09375 14.445312 0.171875 11.28125 -1.671875 C 8.125 -3.515625 5.675781 -6.082031 3.9375 -9.375 C 2.195312 -12.675781 1.328125 -16.503906 1.328125 -20.859375 C 1.328125 -25.273438 2.195312 -29.117188 3.9375 -32.390625 C 5.675781 -35.660156 8.125 -38.21875 11.28125 -40.0625 C 14.445312 -41.90625 18.109375 -42.828125 22.265625 -42.828125 C 24.085938 -42.828125 25.8125 -42.644531 27.4375 -42.28125 C 29.070312 -41.914062 30.617188 -41.367188 32.078125 -40.640625 L 32.078125 -57.609375 L 52.78125 -57.609375 L 52.78125 0 L 38.078125 0 L 36.4375 -4.046875 C 34.675781 -2.441406 32.597656 -1.179688 30.203125 -0.265625 C 27.816406 0.640625 25.171875 1.09375 22.265625 1.09375 Z M 21.40625 -20.859375 C 21.40625 -19.203125 21.910156 -17.867188 22.921875 -16.859375 C 23.941406 -15.847656 25.253906 -15.34375 26.859375 -15.34375 C 28.523438 -15.34375 29.863281 -15.847656 30.875 -16.859375 C 31.882812 -17.867188 32.390625 -19.203125 32.390625 -20.859375 C 32.390625 -22.523438 31.882812 -23.875 30.875 -24.90625 C 29.863281 -25.945312 28.523438 -26.46875 26.859375 -26.46875 C 25.253906 -26.46875 23.941406 -25.945312 22.921875 -24.90625 C 21.910156 -23.875 21.40625 -22.523438 21.40625 -20.859375 Z M 21.40625 -20.859375 "/></g></g></g><g fill="#000000" fill-opacity="1"><g transform="translate(249.456822, 204.75648)"><g><path d="M 17.59375 1.015625 C 12.613281 1.015625 8.734375 -0.125 5.953125 -2.40625 C 3.179688 -4.695312 1.796875 -7.835938 1.796875 -11.828125 C 1.796875 -15.671875 3.078125 -18.75 5.640625 -21.0625 C 8.210938 -23.375 11.703125 -24.53125 16.109375 -24.53125 L 28.890625 -24.53125 L 28.890625 -27.015625 C 28.890625 -27.898438 28.601562 -28.613281 28.03125 -29.15625 C 27.457031 -29.695312 26.703125 -29.96875 25.765625 -29.96875 C 24.890625 -29.96875 24.164062 -29.707031 23.59375 -29.1875 C 23.019531 -28.675781 22.707031 -27.976562 22.65625 -27.09375 L 3.8125 -27.09375 C 5.320312 -37.632812 12.71875 -42.90625 26 -42.90625 C 33.53125 -42.90625 39.226562 -41.21875 43.09375 -37.84375 C 46.957031 -34.46875 48.890625 -29.484375 48.890625 -22.890625 L 48.890625 0 L 34.109375 0 L 32.3125 -4.671875 C 28.726562 -0.878906 23.820312 1.015625 17.59375 1.015625 Z M 21.015625 -13.78125 C 21.015625 -12.945312 21.335938 -12.285156 21.984375 -11.796875 C 22.640625 -11.304688 23.515625 -11.0625 24.609375 -11.0625 C 26.003906 -11.0625 27.117188 -11.445312 27.953125 -12.21875 C 28.785156 -13 29.203125 -14.09375 29.203125 -15.5 L 29.203125 -16.5 L 24.609375 -16.5 C 23.515625 -16.5 22.640625 -16.265625 21.984375 -15.796875 C 21.335938 -15.335938 21.015625 -14.664062 21.015625 -13.78125 Z M 21.015625 -13.78125 "/></g></g></g></g></g></svg>